<svg width="96" height="48" viewBox="0 0 96 48" fill="none" xmlns="http://www.w3.org/2000/svg">
<g id="IMDB">
<g id="Group">
<g id="Group_2">
<path id="Vector" d="M11.5784 9.64539H19.1966V38.7355H11.5784V9.64539Z" fill="white"/>
</g>
<g id="Group_3">
<path id="Vector_2" d="M33.5916 23.0452C32.9371 18.6117 32.5731 16.1474 32.5013 15.6555C32.1825 13.2823 31.8786 11.2171 31.5881 9.45493C30.9286 9.45493 27.6379 9.45493 21.7109 9.45493V38.5451H28.3842L28.4076 19.3371L31.2158 38.5451H35.969L38.632 18.9098L38.657 38.5451H45.3086V9.45493H35.3563L33.5916 23.0452Z" fill="white"/>
</g>
<g id="Group_4">
<path id="Vector_3" d="M57.8855 15.5065C57.969 15.8774 58.0124 16.7188 58.0124 18.0337C58.0124 19.1616 58.0124 28.1843 58.0124 29.3121C58.0124 31.2481 57.8855 32.4339 57.6334 32.8711C57.3796 33.3084 56.7051 33.5253 55.6115 33.5253C55.6115 31.6158 55.6115 16.3395 55.6115 14.43C56.4413 14.43 57.0073 14.5178 57.3078 14.69C57.6083 14.8639 57.802 15.1355 57.8855 15.5065ZM61.3265 38.2486C62.233 38.0516 62.9944 37.7038 63.6121 37.2086C64.2282 36.7117 64.6606 36.0244 64.9077 35.145C65.1565 34.2673 65.3034 32.5233 65.3034 29.9149C65.3034 28.8947 65.3034 20.7217 65.3034 19.6998C65.3034 16.9473 65.1949 15.1024 65.0262 14.165C64.8559 13.226 64.4335 12.373 63.7574 11.6079C63.0795 10.8428 62.0911 10.2929 60.7922 9.95839C59.4916 9.62385 57.3713 9.45493 53.6832 9.45493C53.3042 9.45493 51.4109 9.45493 48 9.45493V38.5451H57.2294C59.3564 38.4788 60.7221 38.3811 61.3265 38.2486Z" fill="white"/>
</g>
<g id="Group_5">
<path id="Vector_4" d="M77.5948 33.9013C77.4545 34.2706 76.8401 34.4577 76.376 34.4577C75.9219 34.4577 75.6197 34.2789 75.4661 33.9195C75.3125 33.5618 75.2374 32.7453 75.2374 31.4667C75.2374 30.6983 75.2374 24.5474 75.2374 23.7789C75.2374 22.454 75.3041 21.6276 75.4394 21.298C75.5729 20.9718 75.8668 20.8061 76.3209 20.8061C76.785 20.8061 77.4078 20.9933 77.5681 21.3692C77.7267 21.7452 77.8068 22.5484 77.8068 23.7789C77.8068 24.2758 77.8068 26.76 77.8068 31.2332C77.7584 32.7651 77.6883 33.6545 77.5948 33.9013ZM67.8979 38.2917H74.7565C75.042 37.1804 75.199 36.5627 75.2307 36.4385C75.8518 37.1837 76.5346 37.7435 77.2842 38.1145C78.0305 38.4871 79.1475 38.6726 80.0123 38.6726C81.2161 38.6726 82.2545 38.3596 83.1311 37.7319C84.0059 37.1059 84.5636 36.3639 84.8006 35.511C85.0377 34.6565 85.1562 33.358 85.1562 31.6125C85.1562 30.796 85.1562 24.2675 85.1562 23.451C85.1562 21.6955 85.1162 20.5494 85.0377 20.0112C84.9592 19.4729 84.7255 18.9248 84.3365 18.3633C83.9475 17.8019 83.3815 17.3663 82.6402 17.055C81.8989 16.7436 81.0241 16.5879 80.0157 16.5879C79.1391 16.5879 78.0172 16.7618 77.2692 17.1047C76.5229 17.4475 75.8451 17.9675 75.2374 18.6647C75.2374 18.0338 75.2374 14.8805 75.2374 9.20154H67.8979V38.2917Z" fill="white"/>
</g>
</g>
</g>
</svg>
